<svg width="103" height="102" viewBox="0 0 103 102" fill="none" xmlns="http://www.w3.org/2000/svg">
<g clip-path="url(#clip0_173_107)">
<path d="M51.5309 -0.000976562C76.804 6.98424 88.5903 15.6708 102.114 36.3926C103.211 62.344 98.5324 76.1318 82.7983 95.2619C58.2014 104.328 43.509 104.165 20.2825 95.2619C3.98196 74.9032 -0.403777 61.0231 0.966638 36.3926C15.4762 14.749 27.4634 6.31537 51.5319 -0.000976562H51.5309Z" fill="#297BBF"/>
<path d="M16.2762 41.3687L15.1615 42.9793L12.9504 46.2729L11.4884 50.4895L10.7026 52.2811L10.8488 55.2491L12.0732 57.2759L12.5118 59.6466L13.0966 61.3115L14.4306 63.7365L14.321 64.9852L14.6133 66.3063L15.655 68.1521L16.6235 69.3646L16.9159 70.8124" stroke="black" stroke-width="0.16018"/>
<path d="M51.531 90.1757C53.066 90.0671 54.2721 89.5604 55.6976 89.0356C57.8539 88.2212 59.6814 87.3526 63.5189 88.3117C64.5605 88.565 65.8031 89.0356 66.991 89.5423C69.4763 90.5919 72.3455 91.5872 75.5434 91.3157L75.8175 90.1937C74.4469 89.126 73.9352 87.606 73.5149 85.7057C73.4053 85.199 73.2956 84.7104 73.1677 84.1856L73.0581 83.7875L72.6561 83.7513C70.2987 83.5703 68.6174 82.9912 66.516 82.2493C65.6205 81.9235 64.652 81.5797 63.5189 81.2358C60.4305 80.2948 57.6165 81.0006 55.0032 81.652C53.6143 81.9959 52.8651 82.3216 51.6407 82.3759H51.4762C50.2336 82.3397 49.4844 82.014 48.1138 81.652C45.5007 81.0006 42.6682 80.2948 39.598 81.2358C38.465 81.5797 37.4965 81.9235 36.601 82.2493C34.4995 82.9912 32.8183 83.5703 30.4609 83.7513L30.0589 83.7875L29.9492 84.1856C29.803 84.7104 29.7117 85.199 29.5837 85.7057C29.1634 87.6059 28.7249 89.2347 27.3543 90.3024L27.5736 91.1529C30.7715 91.4244 33.476 90.5557 35.9614 89.488C37.1492 88.9813 38.3187 88.5108 39.3787 88.2574C43.2162 87.2983 45.2265 88.2393 47.4011 89.0537C48.8264 89.5785 50.0508 90.0852 51.586 90.1938L51.531 90.1757ZM51.531 81.7063C49.4294 81.1453 47.3095 80.15 45.4457 78.7927C45.062 78.5032 44.6782 78.2136 44.3127 77.8879C44.1665 77.7612 44.0386 77.6345 43.8924 77.5078C41.4803 78.4851 37.99 79.589 34.4265 80.2223C31.4477 80.7471 28.4144 80.9281 25.8558 80.4033C23.2062 79.8785 21.0864 78.5936 20.0994 76.1688C19.935 75.7525 19.7888 75.3001 19.6974 74.8296C17.6507 73.4904 16.6455 71.8616 16.3167 70.5588C16.2436 70.2874 16.2071 70.016 16.1888 69.7807C16.1705 69.6359 16.1705 69.5093 16.1888 69.3645C14.7817 67.9891 13.9411 66.5595 13.8131 65.2202C13.7949 64.9307 13.7949 64.6592 13.8497 64.3697C13.8862 64.2068 13.9045 64.0439 13.9593 63.8991H13.9776C13.2649 63.0667 12.7167 62.2343 12.3329 61.2571C11.9309 60.2437 11.7482 59.1036 11.803 57.71C9.29944 55.4299 9.61011 51.8649 11.1451 48.8608C12.936 45.3318 15.33 41.9839 16.3716 39.0162C16.9564 37.3695 17.4132 38.401 17.4132 38.9077C17.4132 41.3688 17.0112 44.011 16.4995 46.3817C16.4447 46.6351 16.3899 46.8884 16.2254 47.7028C15.9696 48.9152 15.9696 50.0553 16.3168 50.8877C16.463 51.2316 16.664 51.503 16.9198 51.7383C17.1757 51.9554 17.5229 52.1183 17.9432 52.2088C18.9117 52.4079 20.2823 52.1907 22.1281 51.4306C26.6418 49.5486 31.0093 47.9017 34.116 47.6847C37.5881 47.4494 39.6164 48.8248 38.9403 53.2042C38.8489 53.8013 38.7392 54.4166 38.6479 54.9776C38.392 56.4435 38.2641 57.2759 38.3555 58.054C38.4286 58.6511 38.593 59.3207 39.0133 60.0084C39.3605 60.5875 39.9088 61.1666 40.7494 61.7457C40.7859 61.6371 40.8408 61.5104 40.8773 61.4019C40.6398 58.9045 40.8773 56.4253 41.9372 54.0907C42.1382 53.6745 42.3393 53.2583 42.5951 52.8602L37.7343 29.4249C37.4053 27.8143 37.0216 26.8009 36.382 26.3305C35.5231 25.6971 34.116 25.8781 33.1292 26.0409C32.2886 26.1857 32.2886 25.6971 32.8917 25.3532C33.8054 24.8465 34.9018 24.1227 35.8887 23.4712C37.6796 22.2949 39.4705 21.2453 41.4623 22.7473C41.7181 21.0643 43.0521 20.1777 44.3313 19.3089C44.6968 19.0374 45.6105 18.5307 46.0857 17.825C46.5425 17.1735 47.0725 16.9382 47.1638 17.6983C47.1821 17.8974 47.2552 18.3136 47.3283 18.7479C48.242 17.7707 49.6126 17.2097 50.5079 16.2686C51.0196 15.7257 51.0379 15.219 51.513 15.2009C51.9881 15.219 52.0064 15.7257 52.5181 16.2686C53.4135 17.2097 54.7841 17.7707 55.6977 18.7479C55.7708 18.3136 55.8439 17.8973 55.8621 17.6983C55.9535 16.9382 56.4835 17.1554 56.9403 17.825C57.4337 18.5127 58.3292 19.0374 58.6946 19.3089C59.9555 20.1775 61.2897 21.0643 61.5454 22.7473C63.5373 21.2453 65.3464 22.2949 67.119 23.4712C68.1058 24.1227 69.2205 24.8465 70.116 25.3532C70.7008 25.679 70.7008 26.1676 69.8602 26.0409C68.8917 25.878 67.4663 25.6971 66.6075 26.3305C65.9679 26.8191 65.5841 27.8144 65.2552 29.4249L60.3944 52.8602C60.6319 53.2583 60.8512 53.6745 61.0339 54.0907C62.0938 56.4252 62.3497 58.9225 62.0938 61.4019C62.1486 61.5104 62.1852 61.6371 62.2218 61.7457C63.0624 61.1666 63.6106 60.5875 63.9578 60.0084C64.3781 59.3207 64.5425 58.6511 64.6157 58.054C64.707 57.2577 64.5791 56.4433 64.3233 54.9776C64.2319 54.4347 64.1223 53.8013 64.0309 53.2042C63.3548 48.8429 65.3832 47.4493 68.8552 47.6847C71.9802 47.8838 76.3294 49.5486 80.8614 51.4306C82.707 52.2088 84.0775 52.4078 85.0462 52.2088C85.4666 52.1183 85.7955 51.9735 86.0696 51.7383C86.3437 51.5211 86.5447 51.2316 86.6726 50.8877C87.0199 50.0553 87.0199 48.9152 86.7823 47.7028C86.6178 46.8884 86.563 46.6351 86.5082 46.3817C86.0148 44.0111 85.6127 41.3689 85.6127 38.9077C85.6127 38.4009 86.0696 37.3694 86.6544 39.0162C87.696 41.9842 90.0899 45.3321 91.8808 48.8608C93.4158 51.883 93.7265 55.4479 91.223 57.71C91.2778 59.1035 91.0951 60.2436 90.693 61.2571C90.3275 62.2343 89.761 63.0668 89.0666 63.8991C89.1214 64.0439 89.158 64.2068 89.1762 64.3697C89.2311 64.6592 89.2311 64.9488 89.2128 65.2202C89.1032 66.5594 88.2443 67.9709 86.8372 69.3645V69.7807C86.8189 70.016 86.7823 70.2874 86.7092 70.5588C86.3803 71.8618 85.3752 73.4906 83.3285 74.8296C83.2372 75.3001 83.091 75.7525 82.9265 76.1688C81.9397 78.5937 79.82 79.8604 77.1701 80.4033C74.6117 80.9281 71.5782 80.729 68.5995 80.2223C65.0359 79.607 61.564 78.485 59.1335 77.5078C58.9873 77.6345 58.8594 77.7612 58.7132 77.8879C58.3294 78.2136 57.9639 78.5032 57.5802 78.7927C55.7162 80.15 53.5781 81.1453 51.4949 81.7063H51.531Z" fill="black"/>
<path d="M50.2432 44.5177C50.7001 45.0968 51.1752 45.694 51.5407 46.4179C51.8879 45.694 52.363 45.0968 52.8199 44.5177C53.5326 43.6129 54.227 42.7623 54.2635 41.4592C54.3001 40.1201 53.496 39.0343 52.7102 37.9303C52.2899 37.3331 51.8696 36.754 51.5407 36.1206C51.2118 36.754 50.7915 37.3512 50.3711 37.9303C49.5854 39.0342 48.7813 40.12 48.8179 41.4592C48.8361 42.7622 49.5305 43.6127 50.2615 44.5177H50.2432Z" fill="white"/>
<path d="M20.2716 73.9065C21.3864 74.3771 22.4097 74.6304 23.4332 74.739C24.3652 74.8476 25.3154 74.8295 26.3388 74.7933C27.0515 74.7571 27.1246 75.8972 26.3205 75.9334C25.2789 75.9877 24.3104 75.9877 23.3052 75.8791C22.556 75.8067 21.8068 75.6619 21.0209 75.4086C21.0575 75.5533 21.1123 75.68 21.1671 75.8067C21.9895 77.8154 23.8168 78.9011 26.1011 79.3537C28.495 79.8423 31.3824 79.6614 34.2515 79.1547C37.2303 78.6299 40.1539 77.7612 42.4199 76.9288C39.0392 76.3135 36.4261 75.1734 34.6169 73.4179C32.5702 71.4454 31.6016 68.7489 31.8027 65.2021C31.9306 62.8857 32.6433 60.5149 33.3011 58.3071C33.758 56.7689 34.1966 55.303 34.3793 54.0364C34.7265 51.6838 34.1235 49.9284 30.9072 49.4579C28.4402 50.1275 25.5713 51.2495 22.6108 52.4801C20.5275 53.3488 18.9376 53.5659 17.75 53.3307C17.1286 53.204 16.6352 52.9687 16.2149 52.6249C15.8129 52.2811 15.5022 51.8468 15.283 51.3582C14.8444 50.3086 14.8261 48.9332 15.1185 47.5036C15.1368 47.4131 15.2647 46.7978 15.3926 46.1825C15.6667 44.8434 15.9408 43.6129 16.1419 42.2917C15.6119 43.3233 15.0089 44.3548 14.4058 45.3862C12.5418 48.6254 10.6597 51.8647 11.2993 54.5973C12.1034 58.0357 16.1784 58.8137 19.1572 59.2482C20.4364 59.4292 20.2902 60.5693 18.8831 60.334C17.2384 60.0807 15.3378 59.6645 13.8394 59.013C13.5288 58.8682 13.2364 58.7234 12.944 58.5606C12.9805 59.4292 13.145 60.1712 13.4008 60.8408C14.68 64.1162 17.1835 64.4962 20.3634 64.804C21.8436 64.9487 21.7888 66.0707 20.2903 65.9441C18.6822 65.7993 16.9278 65.5098 15.5937 64.9669C15.3744 64.8764 15.1552 64.7678 14.9541 64.6592C14.6435 66.4146 16.0506 68.0614 17.7318 68.8757C19.4678 69.7081 21.5145 69.69 22.8668 69.5814C23.8902 69.509 23.8902 70.7215 22.8851 70.7215C21.807 70.7215 20.6191 70.7034 19.4861 70.5586C18.7186 70.4501 17.9877 70.2872 17.3298 70.0338C17.3481 70.1243 17.3663 70.1967 17.3846 70.2872C17.6587 71.3549 18.4993 72.6941 20.2171 73.8523L20.2716 73.9065Z" fill="white"/>
<path d="M48.0287 49.0058C45.5251 50.6526 43.9535 52.5347 43.0399 54.5434C42.3455 56.0816 42.0348 57.7102 41.9983 59.3751C42.6379 58.416 43.4054 57.5473 44.1912 56.6787C45.9089 54.7424 47.6633 52.7698 47.9739 49.7295C47.9921 49.4942 48.0104 49.2591 48.0287 49.0058Z" fill="white"/>
<path d="M50.8613 86.1388V82.7729C49.6917 82.6643 49.0522 82.3566 47.7911 82.049C45.3241 81.4337 42.6743 80.7641 39.8967 81.6147C38.782 81.9585 37.8135 82.2842 36.9362 82.61C34.8712 83.3339 33.1901 83.931 30.9241 84.1482C30.851 84.492 30.7596 84.854 30.6865 85.2159C30.5038 85.9941 30.3393 86.8084 30.0835 87.5685C31.9657 87.5323 33.6836 86.736 35.3648 85.976C36.443 85.4874 37.5029 84.9988 38.581 84.7092C42.9119 83.5691 45.8358 84.5283 48.5586 85.415C49.5454 85.7407 49.9474 85.9398 50.8794 86.1388H50.8613Z" fill="white"/>
<path d="M82.817 73.9065C81.7023 74.3771 80.679 74.6304 79.6557 74.739C78.7237 74.8476 77.7734 74.8295 76.7501 74.7933C76.0374 74.7571 75.9643 75.8972 76.7684 75.9334C77.81 75.9877 78.7785 75.9877 79.7837 75.8791C80.5329 75.8067 81.2821 75.6619 82.0679 75.4086C82.0314 75.5533 81.9766 75.68 81.9217 75.8067C81.0994 77.8154 79.272 78.9011 76.9878 79.3537C74.5939 79.8423 71.7064 79.6614 68.8559 79.1547C65.8772 78.6299 62.9535 77.7612 60.6875 76.9288C64.0682 76.3135 66.6813 75.1734 68.4905 73.4179C70.5372 71.4454 71.5058 68.7489 71.3047 65.2021C71.1768 62.8857 70.4641 60.5149 69.8063 58.3071C69.3494 56.7689 68.9108 55.303 68.7281 54.0364C68.3992 51.6838 68.9839 49.9284 72.2002 49.4579C74.6672 50.1275 77.5361 51.2495 80.4966 52.4801C82.5799 53.3488 84.1696 53.5659 85.3574 53.3307C85.9788 53.204 86.4722 52.9687 86.8925 52.6249C87.2945 52.2811 87.6051 51.8468 87.8244 51.3582C88.263 50.3086 88.2813 48.9332 87.9889 47.5036C87.9706 47.4131 87.8427 46.7978 87.7148 46.1825C87.4224 44.8434 87.1666 43.6129 86.9656 42.2917C87.4955 43.3233 88.0986 44.3548 88.6833 45.3862C90.5656 48.6254 92.4294 51.8647 91.7898 54.5973C90.9857 58.0357 86.9107 58.8137 83.9319 59.2482C82.6527 59.4292 82.7989 60.5693 84.206 60.334C85.8507 60.0807 87.7513 59.6645 89.2497 59.013C89.5604 58.8682 89.8527 58.7234 90.1268 58.5606C90.0903 59.4292 89.9258 60.1712 89.67 60.8408C88.3908 64.1162 85.8873 64.4962 82.6892 64.804C81.209 64.9487 81.2821 66.0707 82.7623 65.9441C84.3521 65.7993 86.1247 65.5098 87.4588 64.9669C87.6781 64.8764 87.8974 64.7678 88.0984 64.6592C88.409 66.4146 87.0019 68.0614 85.3025 68.8757C83.5664 69.7081 81.5198 69.69 80.1674 69.5814C79.1623 69.509 79.144 70.7215 80.1491 70.7215C81.2456 70.7215 82.4334 70.7034 83.5481 70.5586C84.3156 70.4501 85.0466 70.2872 85.7045 70.0338C85.6862 70.1243 85.6679 70.1967 85.6497 70.2872C85.3755 71.3549 84.5349 72.6941 82.8172 73.8523L82.817 73.9065Z" fill="white"/>
<path d="M55.0586 49.0058C57.5622 50.6526 59.1338 52.5347 60.0474 54.5434C60.7601 56.0816 61.0707 57.7102 61.089 59.3751C60.4494 58.416 59.6819 57.5473 58.8961 56.6787C57.1783 54.7424 55.424 52.7698 55.1134 49.7295C55.0952 49.4942 55.0769 49.2591 55.0586 49.0058Z" fill="white"/>
<path d="M52.1746 86.1388V82.7729C53.3624 82.6643 53.9837 82.3566 55.2448 82.049C57.7118 81.4337 60.3798 80.7641 63.1392 81.6147C64.2539 81.9585 65.2042 82.2842 66.0997 82.61C68.1646 83.3339 69.8458 83.931 72.1118 84.1482C72.1849 84.492 72.2763 84.854 72.3494 85.2159C72.5138 85.9941 72.6966 86.8084 72.9341 87.5685C71.0519 87.5323 69.334 86.736 67.6711 85.976C66.5929 85.4874 65.533 84.9988 64.4366 84.7092C60.1057 83.5691 57.1818 84.5283 54.459 85.415C53.4722 85.7407 53.0702 85.9398 52.1382 86.1388H52.1746Z" fill="white"/>
<path d="M51.5307 87.4063C52.7368 87.3158 53.5044 86.9538 54.8566 86.5014C57.4332 85.669 60.1925 84.7641 64.1946 85.8137C65.1814 86.0671 66.1865 86.5376 67.2282 87.0081C67.8678 87.2977 68.5439 87.6053 69.2201 87.8767C70.5175 88.3835 71.888 88.7635 73.405 88.7092C73.5877 89.1254 73.807 89.5054 74.0811 89.8674C71.6689 89.7588 69.476 88.8358 67.4659 87.9672C66.2416 87.4424 65.072 86.9538 63.9207 86.6642C59.7358 85.6327 57.6343 86.4109 55.2952 87.2795C53.7784 87.8405 52.8648 88.1844 51.5308 88.3111C50.1968 88.2025 49.2648 87.8405 47.7664 87.2795C45.4273 86.4109 43.3258 85.6327 39.1409 86.6642C37.9897 86.9538 36.8384 87.4424 35.614 87.9672C33.6038 88.8178 31.411 89.7588 28.9988 89.8674C29.2546 89.5054 29.4739 89.1254 29.6749 88.7092C31.1917 88.7635 32.5623 88.4016 33.8778 87.8767C34.554 87.6053 35.2118 87.3157 35.8514 87.0081C36.8748 86.5376 37.8981 86.0671 38.8851 85.8137C42.8871 84.7641 45.6465 85.669 48.2048 86.5014C49.5753 86.9538 50.3428 87.3158 51.5489 87.4063H51.5307Z" fill="white"/>
<path d="M51.5307 89.4691C53.0658 89.3605 54.2718 88.8538 55.6973 88.329C57.8537 87.5147 59.8091 86.8089 63.6466 87.7499C64.7065 88.0214 65.8213 88.4919 67.0091 88.9986C69.4943 90.0482 72.2355 91.2245 75.4334 90.9711L75.7441 89.9577C74.3735 88.89 73.935 86.8814 73.5146 84.9811C73.405 84.4744 73.2954 83.9858 73.1674 83.4791L73.0578 83.081L72.6558 83.0448C70.2984 82.8638 68.6903 82.1581 66.6071 81.4342C65.7117 81.1266 64.999 80.6741 63.866 80.3303C60.7778 79.3712 57.6162 80.2941 55.0031 80.9456C53.6143 81.2894 52.4813 82.2123 51.257 82.2486H51.0926C49.8682 82.2124 49.5027 81.3075 48.1321 80.9456C45.519 80.2941 42.6865 79.5883 39.6163 80.5294C38.4833 80.8732 37.2407 81.6152 36.3453 81.9228C34.262 82.6648 32.6174 83.1353 30.4792 83.0448L30.0772 83.081L29.9675 83.4791C29.8213 84.004 29.7299 84.4926 29.602 84.9812C29.1817 86.8813 28.7249 88.8901 27.3726 89.9578L27.6832 90.9712C30.8811 91.2426 33.6405 90.0663 36.1076 88.9986C37.2954 88.4919 38.4284 88.0214 39.47 87.7499C43.3076 86.7908 45.2447 87.5147 47.4193 88.329C48.8447 88.8539 50.069 89.3606 51.6042 89.4691L51.5307 89.4691Z" fill="white" stroke="black" stroke-width="4.4495"/>
<path d="M51.5307 72.188C51.2383 72.188 51.1835 72.6585 51.0373 73.0928C50.9094 73.491 50.7449 73.8348 50.5256 74.1967C50.416 74.3958 50.3063 74.5768 50.215 74.7758C49.3378 76.7122 50.2881 78.0151 51.5124 79.2638C52.7916 77.9428 53.6871 76.6942 52.8099 74.7758C52.7185 74.5768 52.6089 74.3958 52.5175 74.1967C52.3165 73.8348 52.152 73.4729 52.0058 73.0928C51.8596 72.6585 51.8048 72.188 51.5124 72.188H51.5307Z" fill="white"/>
<path d="M53.8483 45.4766C53.8118 45.5128 53.7752 45.5671 53.7387 45.6214C53.1173 46.3995 52.4777 47.2139 52.2036 48.3539C51.9112 49.6207 51.1803 49.7293 50.9062 48.4082C50.6869 47.3767 50.1387 46.6167 49.5904 45.8928V45.929C49.4808 45.7842 49.3711 45.6394 49.2615 45.4947C49.2615 46.8881 49.2432 48.6434 49.1336 49.8559C48.7681 53.24 46.9041 55.3754 45.0584 57.4384C43.6147 59.0671 42.2076 60.6595 41.7142 62.7768L41.5315 63.5368L40.8553 63.1387C39.4665 62.3424 38.6076 61.4738 38.096 60.6233C37.566 59.7546 37.365 58.9403 37.2736 58.2164C37.164 57.2754 37.3102 56.4067 37.566 54.8142C37.6391 54.3618 37.7305 53.837 37.8401 53.0588C38.3518 49.729 36.835 48.6794 34.2217 48.8424C33.9111 48.8605 33.6004 48.8967 33.2532 48.951C35.4278 49.9463 35.8297 51.8284 35.4826 54.1991C35.2999 55.5564 34.8431 57.0584 34.3679 58.6509C33.7283 60.7863 33.0522 63.0846 32.9243 65.2743C32.7415 68.4773 33.6004 70.8843 35.3913 72.6216C37.2187 74.3951 40.033 75.4809 43.7425 76.0057L44.0715 76.1686C44.3821 76.4943 44.711 76.802 45.04 77.0915C45.3872 77.381 45.7344 77.6706 46.0999 77.942C47.3243 78.8469 49.8643 80.7108 51.3446 80.6746C52.8979 80.6565 56.9182 77.942 56.9182 77.942C56.9182 77.942 57.6492 77.3991 57.9781 77.0915C58.3253 76.8019 58.6543 76.4943 58.9649 76.1686L59.2939 76.0057C63.0034 75.4809 65.8176 74.3951 67.6451 72.6216C69.436 70.8843 70.2948 68.4773 70.1121 65.2743C69.9842 63.0665 69.3081 60.7863 68.6685 58.6509C68.1933 57.0584 67.7547 55.5565 67.5537 54.1991C67.2065 51.8285 67.6086 49.9465 69.7832 48.951C69.4542 48.8967 69.1253 48.8605 68.8147 48.8424C66.2016 48.6614 64.6846 49.7291 65.1963 53.0588C65.3242 53.8189 65.3973 54.3437 65.4887 54.8142C65.7628 56.3886 65.909 57.2753 65.7811 58.2164C65.6897 58.9403 65.4887 59.7546 64.9587 60.6233C64.4287 61.4738 63.5881 62.3424 62.1993 63.1387L61.5232 63.5368L61.3405 62.7768C60.8471 60.6595 59.44 59.067 57.9963 57.4384C56.1689 55.3753 54.2868 53.24 53.9211 49.8559C53.7932 48.6435 53.7749 46.8699 53.7932 45.4766L53.8483 45.4766Z" fill="white"/>
<path d="M48.0804 43.865C47.8428 43.3221 47.6784 42.7249 47.6601 42.0011C47.6235 40.2819 48.519 39.0331 49.4326 37.7847C50.255 36.6627 50.9129 35.9388 51.1687 34.31C51.2966 33.4957 51.7535 33.6223 51.8631 34.3281C52.1372 35.8483 52.8134 36.6264 53.654 37.7847C54.5494 39.0333 55.4631 40.282 55.4266 42.0011C55.4083 42.7249 55.2438 43.3402 55.0063 43.865C55.0063 45.0594 54.988 46.6157 55.0063 47.7558C56.9616 48.9321 58.4418 50.2532 59.5565 51.6647L59.5748 51.5561L64.1982 29.3153C64.6003 27.4151 65.0571 26.2209 65.9891 25.5331C66.3546 25.2617 66.7566 25.0988 67.25 25.0083C67.1221 24.9178 66.9759 24.8273 66.848 24.7369C65.386 23.7597 63.9241 22.8005 62.3708 23.7597C61.8043 24.1216 61.5302 24.393 61.4206 25.0264L59.1546 37.4589C58.9536 38.4 57.8023 38.219 58.0399 37.1513L60.2328 25.1171C60.379 24.357 60.5983 23.5246 60.379 22.7826C60.05 21.6787 58.9901 20.9549 58.0216 20.2853C57.583 19.9776 57.1627 19.6881 56.8155 19.3804C56.779 19.67 56.7241 19.9414 56.6876 20.1767L55.2622 34.4911C55.1526 35.3779 54.0196 35.2693 54.1292 34.2378L55.3353 22.0587C55.4632 20.8281 55.518 20.249 54.5861 19.3623C54.2023 19.0004 53.7272 18.6385 53.2886 18.2946C52.8318 17.9508 52.3749 17.6612 52.0094 17.2993C51.8267 17.1184 51.6622 16.9193 51.5343 16.7202C51.4064 16.9193 51.2419 17.1183 51.0409 17.2993C50.6754 17.6432 50.2185 17.9508 49.7617 18.2946C49.3231 18.6385 48.8663 18.9823 48.4642 19.3623C47.5322 20.231 47.6054 20.8282 47.715 22.0587L48.9211 34.2378C49.0307 35.2693 47.8977 35.3598 47.7881 34.4911L46.3627 20.1767C46.3261 19.9414 46.2896 19.67 46.2348 19.3804C45.8693 19.6881 45.449 19.9776 45.0104 20.2853C44.0602 20.9368 43.0003 21.6606 42.6713 22.7826C42.4521 23.5427 42.6713 24.3751 42.7992 25.1171L44.9921 37.1513C45.2297 38.219 44.0967 38.4 43.8774 37.4589L41.6114 25.0264C41.5018 24.393 41.2277 24.1216 40.6612 23.7597C39.1261 22.7824 37.6642 23.7597 36.2023 24.7369C36.0744 24.8273 35.9282 24.9178 35.8003 25.0083C36.2754 25.0988 36.6957 25.2798 37.0612 25.5331C37.9749 26.2027 38.45 27.4152 38.8521 29.3153L43.4572 51.5561L43.4755 51.6647C44.5719 50.2532 46.052 48.9321 48.0075 47.7558C48.0257 46.6157 48.0075 45.0594 48.0257 43.865H48.0804Z" fill="white"/>
<path d="M74.3668 88.0224C74.4399 88.2215 74.5313 88.4024 74.6409 88.6015C72.3201 89.1263 69.707 88.131 67.3313 87.0633C65.5404 86.267 63.7495 85.4708 62.05 85.3984C60.1129 85.3079 58.3039 85.4889 56.5312 85.9051C54.7586 86.3213 53.0408 86.9909 51.2499 87.8776C51.2316 87.8957 51.2316 87.8957 51.2133 87.8957H51.1219C51.1219 87.8957 51.1037 87.8957 51.1037 87.8776C51.1037 87.8776 51.0854 87.8776 51.0854 87.8595C49.3128 86.9728 47.5767 86.3032 45.8041 85.887C44.0315 85.4707 42.2222 85.2898 40.2853 85.3803C38.5675 85.4526 36.9412 86.267 35.3514 87.0452C33.2498 88.0767 30.9656 88.9815 28.6448 88.4567L28.9189 87.8776C31.0021 88.3481 33.0672 87.4614 35.0773 86.466C36.7402 85.6517 38.4397 84.8193 40.2672 84.7288C42.2591 84.6383 44.123 84.8192 45.9687 85.2536C47.7413 85.6698 49.4774 86.3394 51.2681 87.208C53.0407 86.3213 54.7951 85.6698 56.5677 85.2536C58.3951 84.8193 60.2592 84.6383 62.2693 84.7288C64.0784 84.8192 65.9242 85.6336 67.7697 86.466C70.054 87.4795 72.4297 88.4748 74.5494 88.0043L74.3668 88.0224Z" fill="black"/>
<path d="M72.9963 82.8825C73.0695 83.0815 73.1608 83.2625 73.2705 83.4616C70.9496 83.8416 69.7252 82.8644 67.3315 81.8691C65.5406 81.0728 63.7497 80.2766 62.0502 80.2042C60.1131 80.1137 58.304 80.2947 56.5314 80.7109C54.7588 81.1271 53.041 81.7967 51.2501 82.6834C51.2318 82.7015 51.2318 82.7016 51.2135 82.7016L51.177 82.7377H51.1039C51.1039 82.7377 51.0856 82.7377 51.0856 82.7196C51.0856 82.7196 51.0673 82.7196 51.0673 82.7015C49.2947 81.8148 47.5586 81.1452 45.786 80.729C39.1891 79.1546 34.6022 84.5292 30.0154 83.4978L30.2895 82.9187C34.529 83.8778 39.4083 78.5574 45.9321 80.1137C47.7047 80.5299 49.4408 81.1995 51.2317 82.0681C53.0043 81.1995 54.7587 80.5299 56.5313 80.1137C58.3587 79.6793 60.2226 79.4984 62.2329 79.5889C64.042 79.6794 65.8878 80.4937 67.7333 81.3262C70.0176 82.2672 71.0226 83.1539 73.1241 82.9187L72.9963 82.8825Z" fill="black"/>
<path d="M50.7222 82.3958H51.3618V87.2999H50.7222V82.3958Z" fill="black"/>
<path d="M17.6837 34.6724C15.6553 33.7133 14.6501 33.2428 12.6218 32.2836C12.238 33.0799 12.0553 33.4961 11.7081 34.3286C11.2878 34.1476 11.0685 34.0752 10.6482 33.8942C11.5984 31.6141 12.1467 30.5282 13.3344 28.4834C13.7365 28.7187 13.9192 28.8272 14.3212 29.0444C13.8827 29.7864 13.6816 30.1664 13.2796 30.9446C15.2715 31.958 16.2584 32.4828 18.2501 33.4961C18.0126 33.9485 17.9029 34.1838 17.6654 34.6724L17.6837 34.6724Z" fill="black"/>
<path d="M13.8289 27.67C14.1395 27.1633 14.304 26.91 14.6146 26.4213C15.839 27.2176 16.4421 27.6157 17.6665 28.412C18.1417 28.7377 18.4706 28.9187 18.6351 28.9911C18.8909 29.0997 19.1467 29.0997 19.4026 29.0273C19.6584 28.9549 19.8777 28.7558 20.097 28.4663C20.298 28.1767 20.4076 27.9053 20.3894 27.67C20.3711 27.4347 20.2797 27.2176 20.1153 27.0547C19.9508 26.8918 19.6584 26.6385 19.2381 26.3308C18.0503 25.4441 17.4472 24.9917 16.2593 24.1049C16.6066 23.6344 16.7893 23.4173 17.1365 22.9648C18.2329 23.8516 18.7994 24.2859 19.8959 25.1726C20.5172 25.6793 20.9558 26.0594 21.1751 26.3308C21.3944 26.5842 21.5406 26.8737 21.6136 27.1452C21.6868 27.4347 21.6868 27.7243 21.6136 28.05C21.5406 28.3757 21.3578 28.7196 21.0837 29.1177C20.7365 29.5882 20.4441 29.9321 20.1517 30.113C19.8593 30.294 19.5669 30.4026 19.2745 30.4207C18.9822 30.4569 18.708 30.4207 18.4522 30.3302C18.0867 30.2035 17.5751 29.9502 16.9355 29.552C15.7111 28.81 15.0898 28.43 13.8653 27.6881L13.8289 27.67Z" fill="black"/>
<path d="M24.1083 25.1343C22.4636 23.6142 21.6413 22.8541 19.9965 21.3521C19.4483 21.9493 19.1742 22.257 18.6442 22.8723C18.297 22.5827 18.1143 22.4379 17.7671 22.1484C19.229 20.4292 19.9965 19.6149 21.6229 18.1309C21.9335 18.4566 22.0798 18.6376 22.3904 18.9633C21.8056 19.5062 21.5133 19.7776 20.9467 20.3568C22.5366 21.9312 23.3407 22.7093 24.9305 24.2656C24.6016 24.6095 24.419 24.7724 24.1083 25.1343Z" fill="black"/>
<path d="M29.1799 20.6106C27.1149 18.8009 26.0549 17.9142 23.8438 16.2493C24.2823 15.8874 24.5016 15.7245 24.9585 15.3807C26.4021 16.6113 27.1148 17.2266 28.5037 18.5113C27.791 16.756 27.4438 15.8693 26.8225 14.0776C27.3707 13.7157 27.6448 13.5347 28.1931 13.209C29.6002 14.5482 30.2763 15.2359 31.6103 16.6293C30.9708 14.8377 30.6784 13.933 30.1119 12.087C30.587 11.8156 30.8428 11.6889 31.3179 11.4536C31.9941 14.1319 32.3596 15.4349 33.2184 18.0408C32.7982 18.276 32.5789 18.4027 32.1586 18.6561C30.7149 17.1902 29.9657 16.4664 28.4307 15.0728C29.1069 17.0272 29.4541 17.9864 30.2399 19.9045C29.8196 20.1941 29.6185 20.3389 29.2165 20.6465L29.1799 20.6106Z" fill="black"/>
<path d="M31.9094 11.1273C32.4028 10.892 32.6404 10.7835 33.1338 10.5482C33.7551 11.8693 34.0658 12.5208 34.6688 13.8418C34.9064 14.3666 35.0891 14.6923 35.1805 14.8371C35.345 15.0724 35.546 15.2171 35.7835 15.2895C36.0211 15.3619 36.2952 15.3438 36.6059 15.2171C36.9165 15.0905 37.1175 14.9276 37.2089 14.7104C37.3003 14.5114 37.3368 14.2942 37.282 14.0589C37.2272 13.8418 37.0993 13.4798 36.9165 12.9732C36.3683 11.5978 36.0942 10.9101 35.546 9.53473C36.0576 9.33567 36.2952 9.24518 36.8069 9.06421C37.282 10.3853 37.5196 11.0548 38.013 12.3759C38.2871 13.1359 38.4515 13.6789 38.5064 14.0046C38.5612 14.3303 38.5429 14.638 38.4698 14.9094C38.3967 15.1809 38.2505 15.4343 38.0313 15.6514C37.812 15.8686 37.5013 16.0676 37.0993 16.2486C36.6059 16.4477 36.1856 16.5562 35.8749 16.5382C35.5643 16.5201 35.2719 16.4477 35.016 16.3029C34.7602 16.1581 34.5592 15.9953 34.3947 15.7781C34.1571 15.4705 33.8648 14.9818 33.5175 14.3122C32.8779 13.0274 32.549 12.394 31.9094 11.1273Z" fill="black"/>
<path d="M40.2781 15.0007C39.4375 12.4491 39.0354 11.1823 38.1948 8.6486C39.273 8.30476 39.8212 8.16 40.9176 7.88855C41.6121 7.72568 42.1237 7.67139 42.4709 7.72568C42.8181 7.77997 43.1105 7.94284 43.3481 8.19621C43.6039 8.46765 43.7501 8.79339 43.8415 9.17342C43.9329 9.66202 43.878 10.0963 43.677 10.4764C43.476 10.8564 42.6171 11.3269 42.6171 11.3269C42.6171 11.345 43.1653 11.5803 43.3846 11.7432C43.6039 11.906 43.8963 12.2137 44.2801 12.6661C44.6638 13.1185 44.8466 13.3538 45.212 13.8243C44.6821 13.9147 44.408 13.969 43.878 14.0776C43.4212 13.5709 43.2019 13.3356 42.7268 12.847C42.3065 12.4127 42.0141 12.1413 41.8679 12.0508C41.7217 11.9422 41.5755 11.8879 41.4476 11.8698C41.3014 11.8517 41.1004 11.8879 40.8263 11.9603C40.7349 11.9784 40.6801 11.9965 40.5887 12.0327C40.8993 13.1004 41.0638 13.6433 41.3745 14.7109C40.9359 14.8376 40.7166 14.8919 40.278 15.0367L40.2781 15.0007ZM40.2964 10.965C40.6619 10.8564 40.8263 10.8203 41.1918 10.7298C41.7766 10.585 42.142 10.4764 42.27 10.3859C42.3979 10.2954 42.4893 10.1869 42.5441 10.024C42.5989 9.87923 42.5989 9.69827 42.5624 9.49919C42.5075 9.28203 42.4162 9.11916 42.27 9.01058C42.1238 8.90201 41.941 8.84772 41.7218 8.86581C41.6121 8.86581 41.3014 8.9382 40.7898 9.06488C40.3877 9.17346 40.205 9.20965 39.8029 9.33632C40.004 9.9878 40.0953 10.3135 40.2781 10.965L40.2964 10.965Z" fill="black"/>
<path d="M45.7886 13.7154C45.35 11.0734 45.1307 9.77032 44.6921 7.12826C45.2221 7.03778 45.4962 7.00159 46.0262 6.9292C46.3916 9.57125 46.5744 10.8924 46.9216 13.5526C46.4647 13.6069 46.2455 13.643 45.7886 13.7154Z" fill="black"/>
<path d="M50.1661 13.2641C50.0382 10.604 49.9833 9.26471 49.8372 6.60455C50.3671 6.58645 50.6412 6.56836 51.1712 6.56836C51.1894 7.61796 51.2077 8.14278 51.226 9.19231C52.2128 9.1742 52.7062 9.1742 53.693 9.2285C53.7296 8.1789 53.7661 7.65408 53.8027 6.60455C54.3326 6.62266 54.6067 6.64075 55.1367 6.67694C54.9539 9.3371 54.8443 10.6764 54.6615 13.3365C54.2047 13.3003 53.9854 13.3003 53.5285 13.2822C53.5833 12.124 53.6016 11.5269 53.6564 10.3686C52.6879 10.3324 52.2128 10.3324 51.2443 10.3324C51.2625 11.5087 51.2808 12.0878 51.2991 13.246C50.8422 13.246 50.6229 13.2641 50.1661 13.2822V13.2641Z" fill="black"/>
<path d="M60.878 14.2408C60.4029 14.1322 60.147 14.0779 59.6536 13.9874C59.5805 13.354 59.544 13.0464 59.4526 12.413C58.5206 12.2501 58.0638 12.1777 57.1318 12.051C56.8577 12.6302 56.7298 12.9197 56.4739 13.4988C55.9988 13.4445 55.7612 13.4264 55.2678 13.3721C56.3826 10.7844 57.0221 9.49942 58.4291 7.00195C58.9956 7.07434 59.2698 7.12863 59.8363 7.21911C60.421 10.0241 60.6221 11.4358 60.878 14.2408ZM59.3064 11.2185C59.1602 10.187 59.0689 9.66219 58.8861 8.63077C58.3927 9.55369 58.1369 10.0242 57.68 10.9652C58.3379 11.0557 58.6668 11.1099 59.3064 11.2185Z" fill="black"/>
<path d="M61.4961 14.3862C62.1722 11.7985 62.5194 10.4955 63.1773 7.90771C63.689 8.03439 63.9448 8.10678 64.4382 8.23345C64.9864 10.2422 65.2057 11.2557 65.5346 13.2462C66.1377 11.5632 66.4484 10.7127 67.0514 9.04792C67.5265 9.21079 67.7641 9.30128 68.2209 9.46413C67.2524 11.9615 66.759 13.2101 65.7722 15.6894C65.3519 15.5266 65.1326 15.4542 64.694 15.3094C64.4199 13.3731 64.2189 12.3958 63.7255 10.4415C63.2504 12.1245 62.9945 12.9569 62.5011 14.6217C62.0991 14.5131 61.8798 14.4588 61.4778 14.3502L61.4961 14.3862Z" fill="black"/>
<path d="M69.5301 9.9873C70.4438 10.3673 70.9007 10.5664 71.7961 11.0007C72.2895 11.236 72.655 11.4713 72.8743 11.6884C73.1667 11.978 73.3677 12.3037 73.4591 12.7018C73.5504 13.1 73.5687 13.5162 73.4773 13.9505C73.386 14.3848 73.1849 14.8735 72.856 15.4164C72.5819 15.8869 72.2712 16.2669 71.9789 16.5565C71.5951 16.9003 71.2113 17.1536 70.8276 17.2803C70.5352 17.3889 70.2063 17.407 69.8408 17.3708C69.5667 17.3346 69.2377 17.226 68.854 17.0451C68.0682 16.665 67.6844 16.4841 66.8804 16.1583L69.53 10.0054L69.5301 9.9873ZM70.2976 11.5436C69.5484 13.1542 69.1829 13.9505 68.4154 15.5611C68.7443 15.7059 68.8905 15.7783 69.2194 15.9231C69.5118 16.0679 69.7494 16.1583 69.8956 16.1764C70.0966 16.2126 70.2793 16.2126 70.4621 16.1403C70.6448 16.086 70.8276 15.9412 71.0469 15.724C71.2662 15.5069 71.5037 15.163 71.7413 14.7106C71.9971 14.2582 72.1433 13.8782 72.1982 13.6067C72.253 13.3172 72.253 13.0819 72.1799 12.8648C72.1068 12.6476 71.9789 12.4666 71.7778 12.3038C71.6316 12.1771 71.321 11.9961 70.8276 11.7789C70.6083 11.6704 70.4987 11.6342 70.2976 11.5256V11.5436Z" fill="black"/>
<path d="M76.2767 21.7684C75.8746 21.4427 75.6736 21.2798 75.2716 20.9721C75.4909 20.3749 75.5823 20.0673 75.7833 19.452C75.0158 18.8729 74.6137 18.6014 73.8097 18.0767C73.3163 18.4748 73.0604 18.6738 72.567 19.0901C72.1467 18.8186 71.9457 18.6919 71.5254 18.4567C73.6817 16.6108 74.833 15.7422 77.227 14.1135C77.7021 14.4393 77.9396 14.6021 78.4148 14.946C77.7021 17.751 77.2818 19.1261 76.2767 21.7684ZM76.1488 18.3119C76.4594 17.3166 76.6239 16.8098 76.898 15.7783C76.0391 16.3936 75.6005 16.7013 74.7599 17.3528C75.3264 17.7328 75.6005 17.9137 76.1488 18.3119Z" fill="black"/>
<path d="M77.3582 22.6737C78.1257 21.8412 78.4912 21.4069 79.2587 20.5745C79.6059 18.801 79.752 17.8962 79.9348 16.0684C80.4465 16.4665 80.7023 16.6836 81.1957 17.0999C80.9947 18.3305 80.8668 18.9277 80.6109 20.1221C81.7805 19.7421 82.3653 19.5793 83.5897 19.2716C84.0466 19.724 84.2841 19.9593 84.7227 20.4298C82.877 20.7374 81.9816 20.9365 80.209 21.4251C79.4232 22.2394 79.0394 22.6557 78.2537 23.47C77.9064 23.1443 77.742 22.9814 77.3765 22.6738L77.3582 22.6737Z" fill="black"/>
<path d="M83.0746 29.1365C82.7639 28.684 82.5994 28.4669 82.2888 28.0507C82.6543 27.5078 82.8187 27.2363 83.1842 26.6934C82.5629 25.8972 82.2522 25.499 81.5761 24.7571C80.973 25.0104 80.6807 25.1371 80.0959 25.4085C79.7487 25.0285 79.5842 24.8475 79.2188 24.4856C81.7953 23.2731 83.1477 22.7302 85.8888 21.8254C86.2908 22.2779 86.4735 22.5131 86.8573 23.0017C85.4685 25.5714 84.7009 26.8201 83.0563 29.1546L83.0746 29.1365ZM83.8055 25.6618C84.372 24.757 84.6462 24.3046 85.1578 23.3817C84.1527 23.7255 83.6593 23.9245 82.6725 24.3046C83.1294 24.8294 83.3487 25.1009 83.7873 25.6619L83.8055 25.6618Z" fill="black"/>
<path d="M83.4609 29.6974C85.6904 28.1953 86.8234 27.4534 89.0345 25.9514C89.3635 26.4219 89.5096 26.6753 89.8203 27.1639C88.9431 29.1364 88.4497 30.0956 87.3898 31.9232C88.9797 31.0727 89.7655 30.6564 91.3553 29.8059C91.6295 30.2945 91.7574 30.5479 92.0132 31.0727L85.9828 34.0587C85.7452 33.5882 85.6356 33.3529 85.3798 32.9005C86.4397 31.1632 86.9331 30.2585 87.8102 28.3763C86.33 29.3173 85.5808 29.7698 84.1007 30.7108C83.8449 30.3127 83.7352 30.1136 83.4611 29.7336L83.4609 29.6974Z" fill="black"/>
<path d="M86.5765 35.2334C89.0252 34.1295 90.2677 33.5685 92.7166 32.4646C92.9724 33.0256 93.1003 33.3152 93.3379 33.8942C90.8526 34.9077 89.61 35.4324 87.1064 36.4458C86.9054 35.9572 86.7958 35.7039 86.5765 35.2334Z" fill="black"/>
<path d="M50.0374 71.5912C50.5674 71.0845 52.4679 71.1207 53.0345 71.5912C53.6558 72.0979 53.5096 74.7037 53.5096 74.7037C53.5096 74.7037 54.606 76.0972 54.5695 76.6401C54.5147 77.6716 52.5411 79.5356 51.4445 79.5356C50.348 79.5356 48.3746 77.6173 48.3197 76.5677C48.2832 76.0067 49.4161 74.5589 49.4161 74.5589C49.4161 74.5589 49.471 72.134 50.0192 71.591L50.0374 71.5912ZM50.074 74.7037C50.074 74.7037 49.2882 75.8981 49.3247 76.3686C49.3613 77.2373 50.7136 78.8117 51.4628 78.8117C52.212 78.8117 53.5643 77.2915 53.6009 76.4229C53.6192 75.9705 52.8699 74.8304 52.8699 74.8304C52.8699 74.8304 52.9796 72.695 52.541 72.2789C52.1572 71.8808 50.8415 71.8626 50.4943 72.2789C50.1105 72.7132 50.074 74.7219 50.074 74.7219V74.7037Z" fill="black"/>
<path d="M54.0028 58.9228C53.0708 57.457 52.1571 55.756 51.5175 53.7471C50.7317 55.8101 51.1886 57.837 51.5723 59.5743C52.0109 61.5469 52.4861 63.5556 51.4444 66.6501C51.0607 67.7902 50.0739 67.012 50.3663 66.3424C52.1206 62.2887 50.0191 58.4703 49.4891 57.3483C49.0871 58.778 47.9358 60.3887 47.3145 61.7639C46.4556 63.6641 46.1267 66.1071 47.3328 67.8806C47.5521 68.2244 47.8444 68.5321 48.1917 68.8216C48.4658 69.0388 48.7764 69.2378 49.1236 69.4369C49.3246 69.2921 49.5622 69.1836 49.7998 69.075C49.8729 69.0388 49.946 69.0026 50.0191 68.9845C50.4759 68.8216 50.9693 68.7311 51.481 68.7311C52.212 68.7311 52.9064 68.9121 53.5094 69.2378C53.6191 69.2921 53.7287 69.3645 53.8383 69.4369C56.0495 68.2787 56.5977 66.1976 56.3419 64.2069C56.2871 63.7906 56.1957 63.3563 56.0861 62.9582C55.9581 62.542 55.812 62.1438 55.6475 61.7819C55.2089 60.8047 54.6241 59.8817 54.0211 58.9407L54.0028 58.9228Z" fill="white"/>
<path d="M52.0458 51.1045C52.5757 54.9229 53.855 56.3708 55.0429 58.3794C55.6642 59.3566 56.2489 60.2977 56.7241 61.3473V61.3654C56.9068 61.7817 57.0713 62.2341 57.1992 62.6865C57.3271 63.1389 57.4368 63.6094 57.4916 64.0799C57.8205 66.5954 57.053 69.2195 54.0012 70.5947L53.6357 70.7576L53.3433 70.5223C53.2702 70.4499 53.1971 70.4137 53.124 70.3594C53.0509 70.3051 52.9778 70.2689 52.8864 70.2147C52.4661 69.9975 51.9727 69.8527 51.4428 69.8527C51.0773 69.8527 50.7301 69.9251 50.4194 70.0337C50.3646 70.0518 50.3098 70.0699 50.2732 70.088C50.0174 70.1965 49.7798 70.3413 49.5606 70.5223L49.2682 70.7575L48.9027 70.5947H48.8844C48.2997 70.3232 47.8062 70.0156 47.3677 69.6717C46.9291 69.3279 46.5819 68.9298 46.3078 68.4955C44.8824 66.36 45.2296 63.537 46.1981 61.3835C47.0022 59.5919 48.4276 58.1261 48.8112 55.8821C48.9392 55.0859 49.0854 54.2534 49.798 55.6107C49.9077 55.8098 50.0356 56.0631 50.1453 56.4612C49.7798 55.0497 50.8762 52.0276 51.26 51.0142C51.6072 50.1274 51.9361 49.856 52.0275 51.1228L52.0458 51.1045Z" fill="#FBD206"/>
<path d="M52.0461 51.1045C52.5761 54.9229 53.8553 56.3708 55.0432 58.3794C55.6645 59.3566 56.2493 60.2977 56.7244 61.3473V61.3654" stroke="black" stroke-width="5.191"/>
<path d="M56.7068 61.3479C56.8895 61.7641 57.054 62.2165 57.1819 62.669C57.3098 63.1214 57.4195 63.5919 57.4743 64.0624C57.8032 66.5778 57.0357 69.2019 53.9839 70.5771" stroke="black" stroke-width="5.191"/>
<path d="M53.9926 70.579L53.6271 70.7418L53.3347 70.5066" stroke="black" stroke-width="5.191"/>
<path d="M53.3335 70.505C53.2604 70.4327 53.1874 70.3965 53.1142 70.3422C53.0411 70.2879 52.9681 70.2517 52.8767 70.1974C52.4564 69.9802 51.963 69.8354 51.433 69.8354C51.0675 69.8354 50.7203 69.9078 50.4097 70.0164C50.3548 70.0345 50.3 70.0526 50.2635 70.0707C50.0076 70.1793 49.7701 70.3241 49.5508 70.505" stroke="black" stroke-width="5.191"/>
<path d="M49.5534 70.5049L49.261 70.7401L48.8955 70.5773H48.8772" stroke="black" stroke-width="5.191"/>
<path d="M48.8788 70.5764C48.294 70.3049 47.8006 69.9973 47.362 69.6534C46.9234 69.3096 46.5762 68.9115 46.2838 68.4771C44.8584 66.3417 45.2057 63.5187 46.1742 61.3652C46.9783 59.5736 48.4037 58.1078 48.7873 55.8638C48.9152 55.0676 49.0614 54.2351 49.7741 55.5924C49.8837 55.7914 50.0117 56.0448 50.1396 56.4429C49.7741 55.0314 50.8706 52.0092 51.2543 50.9959C51.6015 50.1091 51.9305 49.8377 52.0218 51.1045" stroke="black" stroke-width="5.191"/>
<path d="M50.2178 55.3937C50.2178 55.3937 51.9903 59.0132 52.2096 60.9675C52.4107 62.7772 50.4188 66.5413 50.4188 66.5413C50.4188 66.5413 51.3873 63.0305 51.2594 61.1667C51.1497 59.5199 49.5964 56.2082 49.5964 56.2082L50.2178 55.3757V55.3937Z" fill="black"/>
<path d="M51.5308 89.4692C53.0658 89.3606 54.2718 88.8539 55.6974 88.3291C57.8537 87.5147 59.8091 86.8089 63.6467 87.75C64.7065 88.0214 65.8213 88.4919 67.0091 88.9987C69.4944 90.0483 72.2356 91.2246 75.4335 90.9712" stroke="black" stroke-width="0.74162"/>
<path d="M75.4526 90.9711L75.7359 89.9587" stroke="black" stroke-width="0.74162"/>
<path d="M75.7358 89.9588C74.3653 88.8911 73.9267 86.8825 73.5064 84.9823C73.3968 84.4755 73.2871 83.9869 73.1592 83.4802" stroke="black" stroke-width="0.74162"/>
<path d="M73.1635 83.4819L73.0539 83.0838L72.6335 83.0476" stroke="black" stroke-width="0.74162"/>
<path d="M72.6458 83.0458C70.2884 82.8648 68.6803 82.159 66.5972 81.4352C65.7017 81.1275 64.989 80.6751 63.8561 80.3313C60.7676 79.3721 57.6063 80.2951 54.9932 80.9466C53.6043 81.2904 52.4713 82.2133 51.2471 82.2495" stroke="black" stroke-width="0.74162"/>
<path d="M51.2347 82.2324H51.052" stroke="black" stroke-width="0.74162"/>
<path d="M51.0416 82.2324C49.8173 82.1962 49.4518 81.2914 48.0811 80.9294C45.468 80.2779 42.6355 79.5722 39.5654 80.5132C38.4324 80.8571 37.1897 81.599 36.2943 81.9067C34.2111 82.6486 32.5665 83.1191 30.4282 83.0287" stroke="black" stroke-width="0.74162"/>
<path d="M30.4184 83.0459L30.0164 83.0821L29.9067 83.4802" stroke="black" stroke-width="0.74162"/>
<path d="M29.9009 83.4792C29.7547 84.0041 29.6633 84.4927 29.5354 84.9813C29.1151 86.8814 28.6582 88.8902 27.3059 89.9579" stroke="black" stroke-width="0.74162"/>
<path d="M27.3259 89.9587L27.6349 90.9711" stroke="black" stroke-width="0.74162"/>
<path d="M27.6348 90.9712C30.8327 91.2426 33.592 90.0664 36.0591 88.9986C37.247 88.4919 38.38 88.0214 39.4216 87.75C43.2591 86.7908 45.1963 87.5147 47.3709 88.3291C48.7962 88.8539 50.0205 89.3606 51.5557 89.4692" stroke="black" stroke-width="0.74162"/>
</g>
<defs>
<clipPath id="clip0_173_107">
<rect width="103" height="102" fill="white"/>
</clipPath>
</defs>
</svg>
